<svg xmlns="http://www.w3.org/2000/svg" width="1264" height="1044" viewBox="0 0 1264 1044">
<rect width="1264" height="1044" fill="#f7f8fa"/>
<rect x="18" y="18" width="1228" height="1008" fill="none" stroke="#98a5b6" stroke-width="1"/>
<rect x="125.12" y="125.12" width="278.08" height="234.08" fill="#eef2f7"/>
<rect x="403.2" y="125.12" width="249.92" height="234.08" fill="#ffffff"/>
<rect x="125.12" y="359.2" width="528" height="427.68" fill="#ffffff"/>
<rect x="663.68" y="125.12" width="475.2" height="264" fill="#ffffff"/>
<rect x="663.68" y="399.68" width="475.2" height="103.84" fill="#ffffff"/>
<rect x="663.68" y="514.08" width="253.44" height="272.8" fill="#ffffff"/>
<rect x="927.68" y="514.08" width="211.2" height="272.8" fill="#ffffff"/>
<rect x="104" y="104" width="1056" height="21.12" fill="#151d2b"/>
<rect x="104" y="786.88" width="1056" height="21.12" fill="#151d2b"/>
<rect x="104" y="104" width="21.12" height="704" fill="#151d2b"/>
<rect x="1138.88" y="104" width="21.12" height="704" fill="#151d2b"/>
<rect x="653.12" y="125.12" width="10.56" height="661.76" fill="#151d2b"/>
<rect x="658.4" y="389.12" width="480.48" height="10.56" fill="#151d2b"/>
<rect x="658.4" y="503.52" width="480.48" height="10.56" fill="#151d2b"/>
<rect x="917.12" y="508.8" width="10.56" height="278.08" fill="#151d2b"/>
<rect x="125.12" y="353.04" width="190.08" height="12.32" fill="#eef2f7" stroke="#151d2b" stroke-width="1.4"/>
<rect x="1138.88" y="416.4" width="21.12" height="83.6" fill="#ffffff"/><line x1="1138.88" y1="416.4" x2="1160" y2="416.4" stroke="#151d2b" stroke-width="1.2"/><line x1="1138.88" y1="500" x2="1160" y2="500" stroke="#151d2b" stroke-width="1.2"/><path d="M 1149.44 500 A 83.6 83.6 0 0 1 1065.84 416.4" fill="none" stroke="#98a5b6" stroke-width="1" stroke-dasharray="4 3"/><line x1="1149.44" y1="416.4" x2="1065.84" y2="416.4" stroke="#1b2432" stroke-width="2"/>
<rect x="653.12" y="412" width="10.56" height="83.6" fill="#ffffff"/><line x1="653.12" y1="412" x2="663.68" y2="412" stroke="#151d2b" stroke-width="1.2"/><line x1="653.12" y1="495.6" x2="663.68" y2="495.6" stroke="#151d2b" stroke-width="1.2"/>
<rect x="728.8" y="389.12" width="79.2" height="10.56" fill="#ffffff"/><line x1="728.8" y1="389.12" x2="728.8" y2="399.68" stroke="#151d2b" stroke-width="1.2"/><line x1="808" y1="389.12" x2="808" y2="399.68" stroke="#151d2b" stroke-width="1.2"/><path d="M 808 394.4 A 79.2 79.2 0 0 0 728.8 315.2" fill="none" stroke="#98a5b6" stroke-width="1" stroke-dasharray="4 3"/><line x1="728.8" y1="394.4" x2="728.8" y2="315.2" stroke="#1b2432" stroke-width="2"/>
<rect x="680.4" y="503.52" width="74.8" height="10.56" fill="#ffffff"/><line x1="680.4" y1="503.52" x2="680.4" y2="514.08" stroke="#151d2b" stroke-width="1.2"/><line x1="755.2" y1="503.52" x2="755.2" y2="514.08" stroke="#151d2b" stroke-width="1.2"/><path d="M 755.2 508.8 A 74.8 74.8 0 0 1 680.4 583.6" fill="none" stroke="#98a5b6" stroke-width="1" stroke-dasharray="4 3"/><line x1="680.4" y1="508.8" x2="680.4" y2="583.6" stroke="#1b2432" stroke-width="2"/>
<rect x="992.8" y="503.52" width="70.4" height="10.56" fill="#ffffff"/><line x1="992.8" y1="503.52" x2="992.8" y2="514.08" stroke="#151d2b" stroke-width="1.2"/><line x1="1063.2" y1="503.52" x2="1063.2" y2="514.08" stroke="#151d2b" stroke-width="1.2"/><path d="M 1063.2 508.8 A 70.4 70.4 0 0 1 992.8 579.2" fill="none" stroke="#98a5b6" stroke-width="1" stroke-dasharray="4 3"/><line x1="992.8" y1="508.8" x2="992.8" y2="579.2" stroke="#1b2432" stroke-width="2"/>
<rect x="183.2" y="104" width="132" height="21.12" fill="#ffffff"/><line x1="183.2" y1="104" x2="183.2" y2="125.12" stroke="#151d2b" stroke-width="1.2"/><line x1="315.2" y1="104" x2="315.2" y2="125.12" stroke="#151d2b" stroke-width="1.2"/><line x1="183.2" y1="114.56" x2="315.2" y2="114.56" stroke="#3d5570" stroke-width="1.2" fill="none"/><line x1="183.2" y1="105" x2="315.2" y2="105" stroke="#3d5570" stroke-width="1.2" fill="none"/><line x1="183.2" y1="124.12" x2="315.2" y2="124.12" stroke="#3d5570" stroke-width="1.2" fill="none"/>
<rect x="464.8" y="104" width="140.8" height="21.12" fill="#ffffff"/><line x1="464.8" y1="104" x2="464.8" y2="125.12" stroke="#151d2b" stroke-width="1.2"/><line x1="605.6" y1="104" x2="605.6" y2="125.12" stroke="#151d2b" stroke-width="1.2"/><line x1="464.8" y1="114.56" x2="605.6" y2="114.56" stroke="#3d5570" stroke-width="1.2" fill="none"/><line x1="464.8" y1="105" x2="605.6" y2="105" stroke="#3d5570" stroke-width="1.2" fill="none"/><line x1="464.8" y1="124.12" x2="605.6" y2="124.12" stroke="#3d5570" stroke-width="1.2" fill="none"/>
<rect x="737.6" y="104" width="140.8" height="21.12" fill="#ffffff"/><line x1="737.6" y1="104" x2="737.6" y2="125.12" stroke="#151d2b" stroke-width="1.2"/><line x1="878.4" y1="104" x2="878.4" y2="125.12" stroke="#151d2b" stroke-width="1.2"/><line x1="737.6" y1="114.56" x2="878.4" y2="114.56" stroke="#3d5570" stroke-width="1.2" fill="none"/><line x1="737.6" y1="105" x2="878.4" y2="105" stroke="#3d5570" stroke-width="1.2" fill="none"/><line x1="737.6" y1="124.12" x2="878.4" y2="124.12" stroke="#3d5570" stroke-width="1.2" fill="none"/>
<rect x="948.8" y="104" width="140.8" height="21.12" fill="#ffffff"/><line x1="948.8" y1="104" x2="948.8" y2="125.12" stroke="#151d2b" stroke-width="1.2"/><line x1="1089.6" y1="104" x2="1089.6" y2="125.12" stroke="#151d2b" stroke-width="1.2"/><line x1="948.8" y1="114.56" x2="1089.6" y2="114.56" stroke="#3d5570" stroke-width="1.2" fill="none"/><line x1="948.8" y1="105" x2="1089.6" y2="105" stroke="#3d5570" stroke-width="1.2" fill="none"/><line x1="948.8" y1="124.12" x2="1089.6" y2="124.12" stroke="#3d5570" stroke-width="1.2" fill="none"/>
<rect x="209.6" y="786.88" width="149.6" height="21.12" fill="#ffffff"/><line x1="209.6" y1="786.88" x2="209.6" y2="808" stroke="#151d2b" stroke-width="1.2"/><line x1="359.2" y1="786.88" x2="359.2" y2="808" stroke="#151d2b" stroke-width="1.2"/><line x1="209.6" y1="797.44" x2="359.2" y2="797.44" stroke="#3d5570" stroke-width="1.2" fill="none"/><line x1="209.6" y1="787.88" x2="359.2" y2="787.88" stroke="#3d5570" stroke-width="1.2" fill="none"/><line x1="209.6" y1="807" x2="359.2" y2="807" stroke="#3d5570" stroke-width="1.2" fill="none"/>
<rect x="420.8" y="786.88" width="149.6" height="21.12" fill="#ffffff"/><line x1="420.8" y1="786.88" x2="420.8" y2="808" stroke="#151d2b" stroke-width="1.2"/><line x1="570.4" y1="786.88" x2="570.4" y2="808" stroke="#151d2b" stroke-width="1.2"/><line x1="420.8" y1="797.44" x2="570.4" y2="797.44" stroke="#3d5570" stroke-width="1.2" fill="none"/><line x1="420.8" y1="787.88" x2="570.4" y2="787.88" stroke="#3d5570" stroke-width="1.2" fill="none"/><line x1="420.8" y1="807" x2="570.4" y2="807" stroke="#3d5570" stroke-width="1.2" fill="none"/>
<rect x="737.6" y="786.88" width="132" height="21.12" fill="#ffffff"/><line x1="737.6" y1="786.88" x2="737.6" y2="808" stroke="#151d2b" stroke-width="1.2"/><line x1="869.6" y1="786.88" x2="869.6" y2="808" stroke="#151d2b" stroke-width="1.2"/><line x1="737.6" y1="797.44" x2="869.6" y2="797.44" stroke="#3d5570" stroke-width="1.2" fill="none"/><line x1="737.6" y1="787.88" x2="869.6" y2="787.88" stroke="#3d5570" stroke-width="1.2" fill="none"/><line x1="737.6" y1="807" x2="869.6" y2="807" stroke="#3d5570" stroke-width="1.2" fill="none"/>
<rect x="104" y="473.6" width="21.12" height="193.6" fill="#ffffff"/><line x1="104" y1="473.6" x2="125.12" y2="473.6" stroke="#151d2b" stroke-width="1.2"/><line x1="104" y1="667.2" x2="125.12" y2="667.2" stroke="#151d2b" stroke-width="1.2"/><line x1="114.56" y1="473.6" x2="114.56" y2="667.2" stroke="#3d5570" stroke-width="1.2" fill="none"/><line x1="105" y1="473.6" x2="105" y2="667.2" stroke="#3d5570" stroke-width="1.2" fill="none"/><line x1="124.12" y1="473.6" x2="124.12" y2="667.2" stroke="#3d5570" stroke-width="1.2" fill="none"/>
<rect x="1138.88" y="183.2" width="21.12" height="158.4" fill="#ffffff"/><line x1="1138.88" y1="183.2" x2="1160" y2="183.2" stroke="#151d2b" stroke-width="1.2"/><line x1="1138.88" y1="341.6" x2="1160" y2="341.6" stroke="#151d2b" stroke-width="1.2"/><line x1="1149.44" y1="183.2" x2="1149.44" y2="341.6" stroke="#3d5570" stroke-width="1.2" fill="none"/><line x1="1139.88" y1="183.2" x2="1139.88" y2="341.6" stroke="#3d5570" stroke-width="1.2" fill="none"/><line x1="1159" y1="183.2" x2="1159" y2="341.6" stroke="#3d5570" stroke-width="1.2" fill="none"/>
<rect x="1138.88" y="570.4" width="21.12" height="96.8" fill="#ffffff"/><line x1="1138.88" y1="570.4" x2="1160" y2="570.4" stroke="#151d2b" stroke-width="1.2"/><line x1="1138.88" y1="667.2" x2="1160" y2="667.2" stroke="#151d2b" stroke-width="1.2"/><line x1="1149.44" y1="570.4" x2="1149.44" y2="667.2" stroke="#3d5570" stroke-width="1.2" fill="none"/><line x1="1139.88" y1="570.4" x2="1139.88" y2="667.2" stroke="#3d5570" stroke-width="1.2" fill="none"/><line x1="1159" y1="570.4" x2="1159" y2="667.2" stroke="#3d5570" stroke-width="1.2" fill="none"/>
<rect x="130.4" y="130.4" width="268.4" height="54.56" rx="1" fill="none" stroke="#aab6c6" stroke-width="1.3"/><rect x="181.44" y="141.84" width="38.72" height="31.68" rx="3" fill="none" stroke="#aab6c6" stroke-width="1"/><circle cx="301.3" cy="148.18" r="7.92" fill="none" stroke="#aab6c6" stroke-width="1"/><circle cx="320.3" cy="148.18" r="7.92" fill="none" stroke="#aab6c6" stroke-width="1"/><circle cx="301.3" cy="167.18" r="7.92" fill="none" stroke="#aab6c6" stroke-width="1"/><circle cx="320.3" cy="167.18" r="7.92" fill="none" stroke="#aab6c6" stroke-width="1"/>
<rect x="130.4" y="293.2" width="158.4" height="57.2" rx="1" fill="none" stroke="#aab6c6" stroke-width="1.3"/>
<rect x="464.8" y="205.2" width="140.8" height="79.2" rx="3" fill="none" stroke="#aab6c6" stroke-width="1.3"/>
<rect x="480.64" y="158.56" width="36.96" height="36.96" rx="3" fill="none" stroke="#aab6c6" stroke-width="1.3"/>
<rect x="551.04" y="158.56" width="36.96" height="36.96" rx="3" fill="none" stroke="#aab6c6" stroke-width="1.3"/>
<rect x="480.64" y="292.32" width="36.96" height="36.96" rx="3" fill="none" stroke="#aab6c6" stroke-width="1.3"/>
<rect x="551.04" y="292.32" width="36.96" height="36.96" rx="3" fill="none" stroke="#aab6c6" stroke-width="1.3"/>
<rect x="156.8" y="684.8" width="228.8" height="80.96" rx="4" fill="none" stroke="#aab6c6" stroke-width="1.3"/><line x1="156.8" y1="746.4" x2="385.6" y2="746.4" fill="none" stroke="#aab6c6" stroke-width="1"/>
<rect x="165.6" y="535.2" width="228.8" height="140.8" rx="2" fill="none" stroke="#aab6c6" stroke-width="1" stroke-dasharray="5 4"/>
<rect x="236" y="579.2" width="88" height="51.04" rx="3" fill="none" stroke="#aab6c6" stroke-width="1.3"/>
<rect x="196.4" y="464.8" width="149.6" height="44" rx="1" fill="none" stroke="#aab6c6" stroke-width="1.3"/>
<rect x="473.6" y="605.6" width="77.44" height="77.44" rx="4" fill="none" stroke="#aab6c6" stroke-width="1.3"/><line x1="531.68" y1="605.6" x2="531.68" y2="683.04" fill="none" stroke="#aab6c6" stroke-width="1"/>
<rect x="834.4" y="133.92" width="140.8" height="176" rx="3" fill="none" stroke="#aab6c6" stroke-width="1.3"/><line x1="834.4" y1="167.36" x2="975.2" y2="167.36" fill="none" stroke="#aab6c6" stroke-width="1"/><line x1="834.4" y1="248.32" x2="975.2" y2="248.32" fill="none" stroke="#aab6c6" stroke-width="1"/>
<rect x="794.8" y="133.92" width="36.96" height="36.96" rx="3" fill="none" stroke="#aab6c6" stroke-width="1.3"/>
<rect x="977.84" y="133.92" width="36.96" height="36.96" rx="3" fill="none" stroke="#aab6c6" stroke-width="1.3"/>
<rect x="668.96" y="139.2" width="54.56" height="193.6" rx="1" fill="none" stroke="#aab6c6" stroke-width="1.3"/><line x1="668.96" y1="139.2" x2="723.52" y2="332.8" fill="none" stroke="#aab6c6" stroke-width="1"/><line x1="723.52" y1="139.2" x2="668.96" y2="332.8" fill="none" stroke="#aab6c6" stroke-width="1"/>
<rect x="728.8" y="592.4" width="123.2" height="176" rx="3" fill="none" stroke="#aab6c6" stroke-width="1.3"/><line x1="728.8" y1="625.84" x2="852" y2="625.84" fill="none" stroke="#aab6c6" stroke-width="1"/><line x1="728.8" y1="706.8" x2="852" y2="706.8" fill="none" stroke="#aab6c6" stroke-width="1"/>
<rect x="860.8" y="526.4" width="52.8" height="149.6" rx="1" fill="none" stroke="#aab6c6" stroke-width="1.3"/><line x1="860.8" y1="526.4" x2="913.6" y2="676" fill="none" stroke="#aab6c6" stroke-width="1"/><line x1="913.6" y1="526.4" x2="860.8" y2="676" fill="none" stroke="#aab6c6" stroke-width="1"/>
<rect x="936.48" y="714.72" width="149.6" height="63.36" rx="6" fill="none" stroke="#aab6c6" stroke-width="1.3"/><rect x="944.4" y="722.64" width="133.76" height="47.52" rx="5" fill="none" stroke="#aab6c6" stroke-width="1"/>
<rect x="936.48" y="623.2" width="54.56" height="40.48" rx="3" fill="none" stroke="#aab6c6" stroke-width="1.3"/><ellipse cx="963.76" cy="643.44" rx="17.46" ry="12.14" fill="none" stroke="#aab6c6" stroke-width="1"/>
<rect x="1089.6" y="632" width="36.96" height="17.46" rx="2" fill="none" stroke="#aab6c6" stroke-width="1"/><ellipse cx="1108.08" cy="668.01" rx="18.48" ry="18.55" fill="none" stroke="#aab6c6" stroke-width="1.3"/>
<text x="264.16" y="240.4" text-anchor="middle" font-family="'Helvetica Neue', Helvetica, Arial, 'Liberation Sans', sans-serif" font-size="17" font-weight="600" letter-spacing="0.03em" fill="#1b2432">Kitchen</text><text x="264.16" y="261.4" text-anchor="middle" font-family="'Helvetica Neue', Helvetica, Arial, 'Liberation Sans', sans-serif" font-size="13" fill="#6a7889">8.4 m²</text>
<text x="528.16" y="332.8" text-anchor="middle" font-family="'Helvetica Neue', Helvetica, Arial, 'Liberation Sans', sans-serif" font-size="14" font-weight="600" letter-spacing="0.03em" fill="#1b2432">Dining area</text><text x="528.16" y="350.8" text-anchor="middle" font-family="'Helvetica Neue', Helvetica, Arial, 'Liberation Sans', sans-serif" font-size="10" fill="#6a7889">7.6 m²</text>
<text x="416.4" y="486.8" text-anchor="middle" font-family="'Helvetica Neue', Helvetica, Arial, 'Liberation Sans', sans-serif" font-size="17" font-weight="600" letter-spacing="0.03em" fill="#1b2432">Living room</text><text x="416.4" y="507.8" text-anchor="middle" font-family="'Helvetica Neue', Helvetica, Arial, 'Liberation Sans', sans-serif" font-size="13" fill="#6a7889">29.2 m²</text>
<text x="901.28" y="346" text-anchor="middle" font-family="'Helvetica Neue', Helvetica, Arial, 'Liberation Sans', sans-serif" font-size="17" font-weight="600" letter-spacing="0.03em" fill="#1b2432">Primary bedroom</text><text x="901.28" y="367" text-anchor="middle" font-family="'Helvetica Neue', Helvetica, Arial, 'Liberation Sans', sans-serif" font-size="13" fill="#6a7889">16.2 m²</text>
<text x="931.2" y="456" text-anchor="middle" font-family="'Helvetica Neue', Helvetica, Arial, 'Liberation Sans', sans-serif" font-size="14" font-weight="600" letter-spacing="0.03em" fill="#1b2432">Hallway</text>
<text x="790.4" y="548.4" text-anchor="middle" font-family="'Helvetica Neue', Helvetica, Arial, 'Liberation Sans', sans-serif" font-size="14" font-weight="600" letter-spacing="0.03em" fill="#1b2432">Bedroom 2</text><text x="790.4" y="566.4" text-anchor="middle" font-family="'Helvetica Neue', Helvetica, Arial, 'Liberation Sans', sans-serif" font-size="10" fill="#6a7889">8.9 m²</text>
<text x="1033.28" y="627.6" text-anchor="middle" font-family="'Helvetica Neue', Helvetica, Arial, 'Liberation Sans', sans-serif" font-size="14" font-weight="600" letter-spacing="0.03em" fill="#1b2432">Bathroom</text><text x="1033.28" y="645.6" text-anchor="middle" font-family="'Helvetica Neue', Helvetica, Arial, 'Liberation Sans', sans-serif" font-size="10" fill="#6a7889">7.4 m²</text>
<text x="220.16" y="392.64" text-anchor="middle" font-family="'Helvetica Neue', Helvetica, Arial, 'Liberation Sans', sans-serif" font-size="12" font-style="italic" fill="#6a7889">half-height partition, 1.1 m</text>
<text x="510.56" y="394.4" text-anchor="middle" font-family="'Helvetica Neue', Helvetica, Arial, 'Liberation Sans', sans-serif" font-size="12" font-style="italic" fill="#6a7889">open to living room</text>
<line x1="104" y1="51.2" x2="1160" y2="51.2" stroke="#7c8b9e" stroke-width="1"/><line x1="104" y1="45.2" x2="104" y2="57.2" stroke="#7c8b9e" stroke-width="1"/><line x1="1160" y1="45.2" x2="1160" y2="57.2" stroke="#7c8b9e" stroke-width="1"/><text x="632" y="42.2" text-anchor="middle" font-family="'Helvetica Neue', Helvetica, Arial, 'Liberation Sans', sans-serif" font-size="13" fill="#7c8b9e">12.00 m</text>
<line x1="51.2" y1="104" x2="51.2" y2="808" stroke="#7c8b9e" stroke-width="1"/><line x1="45.2" y1="104" x2="57.2" y2="104" stroke="#7c8b9e" stroke-width="1"/><line x1="45.2" y1="808" x2="57.2" y2="808" stroke="#7c8b9e" stroke-width="1"/><text x="42.2" y="456" text-anchor="middle" font-family="'Helvetica Neue', Helvetica, Arial, 'Liberation Sans', sans-serif" font-size="13" fill="#7c8b9e" transform="rotate(-90 42.2 456)">8.00 m</text>
<line x1="104" y1="832.64" x2="658.4" y2="832.64" stroke="#7c8b9e" stroke-width="1"/><line x1="104" y1="826.64" x2="104" y2="838.64" stroke="#7c8b9e" stroke-width="1"/><line x1="658.4" y1="826.64" x2="658.4" y2="838.64" stroke="#7c8b9e" stroke-width="1"/><text x="381.2" y="823.64" text-anchor="middle" font-family="'Helvetica Neue', Helvetica, Arial, 'Liberation Sans', sans-serif" font-size="13" fill="#7c8b9e">6.30 m</text>
<line x1="658.4" y1="832.64" x2="1160" y2="832.64" stroke="#7c8b9e" stroke-width="1"/><line x1="658.4" y1="826.64" x2="658.4" y2="838.64" stroke="#7c8b9e" stroke-width="1"/><line x1="1160" y1="826.64" x2="1160" y2="838.64" stroke="#7c8b9e" stroke-width="1"/><text x="909.2" y="823.64" text-anchor="middle" font-family="'Helvetica Neue', Helvetica, Arial, 'Liberation Sans', sans-serif" font-size="13" fill="#7c8b9e">5.70 m</text>
<g transform="translate(1205.76 152.4)"><circle r="20" fill="none" stroke="#98a5b6" stroke-width="1"/><path d="M 0 -16 L 7 10 L 0 4 L -7 10 Z" fill="#151d2b"/><text x="0" y="-24" text-anchor="middle" font-family="'Helvetica Neue', Helvetica, Arial, 'Liberation Sans', sans-serif" font-size="12" font-weight="600" fill="#1b2432">N</text></g>
<text x="104" y="971" font-family="'Helvetica Neue', Helvetica, Arial, 'Liberation Sans', sans-serif" font-size="12" letter-spacing="0.09em" fill="#6a7889">SCALE</text><rect x="104" y="984" width="88" height="11" fill="#151d2b" stroke="#151d2b" stroke-width="1"/><rect x="192" y="984" width="88" height="11" fill="#f7f8fa" stroke="#151d2b" stroke-width="1"/><rect x="280" y="984" width="88" height="11" fill="#151d2b" stroke="#151d2b" stroke-width="1"/><rect x="368" y="984" width="88" height="11" fill="#f7f8fa" stroke="#151d2b" stroke-width="1"/><rect x="456" y="984" width="88" height="11" fill="#151d2b" stroke="#151d2b" stroke-width="1"/><text x="104" y="1011" text-anchor="middle" font-family="'Helvetica Neue', Helvetica, Arial, 'Liberation Sans', sans-serif" font-size="12" fill="#6a7889">0</text><text x="192" y="1011" text-anchor="middle" font-family="'Helvetica Neue', Helvetica, Arial, 'Liberation Sans', sans-serif" font-size="12" fill="#6a7889">1</text><text x="280" y="1011" text-anchor="middle" font-family="'Helvetica Neue', Helvetica, Arial, 'Liberation Sans', sans-serif" font-size="12" fill="#6a7889">2</text><text x="368" y="1011" text-anchor="middle" font-family="'Helvetica Neue', Helvetica, Arial, 'Liberation Sans', sans-serif" font-size="12" fill="#6a7889">3</text><text x="456" y="1011" text-anchor="middle" font-family="'Helvetica Neue', Helvetica, Arial, 'Liberation Sans', sans-serif" font-size="12" fill="#6a7889">4</text><text x="544" y="1011" text-anchor="middle" font-family="'Helvetica Neue', Helvetica, Arial, 'Liberation Sans', sans-serif" font-size="12" fill="#6a7889">5</text><text x="558" y="1011" font-family="'Helvetica Neue', Helvetica, Arial, 'Liberation Sans', sans-serif" font-size="12" fill="#6a7889">metres</text>
<text x="600" y="971" font-family="'Helvetica Neue', Helvetica, Arial, 'Liberation Sans', sans-serif" font-size="12" letter-spacing="0.09em" fill="#6a7889">LEGEND</text><g transform="translate(600 984)"><rect x="0" y="2" width="22" height="8" fill="#151d2b"/></g><text x="630" y="995" font-family="'Helvetica Neue', Helvetica, Arial, 'Liberation Sans', sans-serif" font-size="12" fill="#6a7889">Wall</text><g transform="translate(692 984)"><path d="M 0 10 A 14 14 0 0 1 14 -4" fill="none" stroke="#98a5b6" stroke-width="1" stroke-dasharray="4 3"/><line x1="0" y1="10" x2="0" y2="-4" stroke="#1b2432" stroke-width="2"/></g><text x="722" y="995" font-family="'Helvetica Neue', Helvetica, Arial, 'Liberation Sans', sans-serif" font-size="12" fill="#6a7889">Door</text><g transform="translate(784 984)"><line x1="0" y1="6" x2="22" y2="6" stroke="#3d5570" stroke-width="1.2"/><line x1="0" y1="2" x2="22" y2="2" stroke="#3d5570" stroke-width="1.2"/><line x1="0" y1="10" x2="22" y2="10" stroke="#3d5570" stroke-width="1.2"/></g><text x="814" y="995" font-family="'Helvetica Neue', Helvetica, Arial, 'Liberation Sans', sans-serif" font-size="12" fill="#6a7889">Window</text>
<line x1="690" y1="852" x2="1160" y2="852" stroke="#98a5b6" stroke-width="1"/><text x="1160" y="874" text-anchor="end" font-family="'Helvetica Neue', Helvetica, Arial, 'Liberation Sans', sans-serif" font-size="19" font-weight="600" fill="#1b2432">Maple Street</text><text x="1160" y="901" text-anchor="end" font-family="'Helvetica Neue', Helvetica, Arial, 'Liberation Sans', sans-serif" font-size="13" font-weight="400" fill="#6a7889">Two-bedroom apartment · open-plan living · central hallway</text><text x="1160" y="922" text-anchor="end" font-family="'Helvetica Neue', Helvetica, Arial, 'Liberation Sans', sans-serif" font-size="12" font-weight="400" fill="#6a7889">84 m² internal · 2.60 m clear ceiling · 7 labelled spaces</text><text x="1160" y="942" text-anchor="end" font-family="'Helvetica Neue', Helvetica, Arial, 'Liberation Sans', sans-serif" font-size="12" font-weight="400" fill="#6a7889">Scene id maple-street · drawn 1:50 · dimensions to structure</text>
</svg>
